<svg width="18" height="18" viewBox="0 0 18 18" fill="none" xmlns="http://www.w3.org/2000/svg">
<path d="M12 4.49995L5.68952 10.9394C5.40816 11.2208 5.25009 11.6024 5.25009 12.0003C5.25009 12.3982 5.40816 12.7798 5.68952 13.0612C5.97088 13.3426 6.35249 13.5006 6.7504 13.5006C7.1483 13.5006 7.52991 13.3426 7.81127 13.0612L14.1218 6.6217C14.6844 6.05907 15.0005 5.29599 15.0005 4.50032C15.0005 3.70465 14.6844 2.94157 14.1218 2.37895C13.5591 1.81632 12.7961 1.50024 12.0004 1.50024C11.2047 1.50024 10.4416 1.81632 9.87902 2.37895L3.59477 8.7922C3.17132 9.20881 2.83454 9.70513 2.60387 10.2525C2.3732 10.8 2.25319 11.3876 2.25077 11.9817C2.24835 12.5757 2.36357 13.1643 2.58978 13.7136C2.81599 14.2629 3.14871 14.7619 3.56875 15.182C3.9888 15.602 4.48785 15.9347 5.03713 16.1609C5.5864 16.3871 6.17503 16.5024 6.76906 16.4999C7.36308 16.4975 7.95075 16.3775 8.49817 16.1468C9.04558 15.9162 9.54191 15.5794 9.95852 15.1559L16.2428 8.7427" stroke="white" stroke-width="1.2" stroke-linecap="round" stroke-linejoin="round"/>
</svg>
