<svg width="20" height="20" viewBox="0 0 20 20" fill="none" xmlns="http://www.w3.org/2000/svg">
<path d="M6.2825 18.7499C13.83 18.7499 17.9587 12.4961 17.9587 7.08239C17.9604 6.90656 17.9579 6.73072 17.9513 6.55489C18.7548 5.97269 19.4485 5.25233 20 4.42739C19.2489 4.75773 18.4533 4.97589 17.6388 5.07489C18.497 4.56202 19.1398 3.75491 19.4475 2.80364C18.6416 3.28204 17.759 3.6174 16.8387 3.79489C16.2202 3.13617 15.4018 2.69979 14.5101 2.55334C13.6185 2.40689 12.7034 2.55854 11.9067 2.98481C11.1099 3.41108 10.476 4.08818 10.1031 4.91122C9.73012 5.73425 9.63897 6.65731 9.84375 7.53739C8.2121 7.45597 6.61581 7.03228 5.15854 6.29385C3.70126 5.55541 2.41559 4.51874 1.385 3.25114C0.861976 4.15507 0.702438 5.22412 0.938759 6.24137C1.17508 7.25861 1.78956 8.14785 2.6575 8.72864C2.00676 8.70761 1.37024 8.53285 0.8 8.21864V8.27489C0.801591 9.22162 1.12977 10.1388 1.72915 10.8716C2.32853 11.6045 3.1624 12.108 4.09 12.2974C3.73784 12.3945 3.37404 12.4428 3.00875 12.4411C2.75115 12.4438 2.49396 12.4199 2.24125 12.3699C2.50299 13.1853 3.01347 13.8982 3.70105 14.4087C4.38862 14.9191 5.21877 15.2015 6.075 15.2161C4.62013 16.3574 2.82406 16.9767 0.975 16.9749C0.649123 16.9773 0.323433 16.9586 0 16.9186C1.87678 18.1155 4.05658 18.7509 6.2825 18.7499Z" fill="#0D7F80"/>
</svg>
