<svg width="20" height="20" viewBox="0 0 20 20" fill="none" xmlns="http://www.w3.org/2000/svg">
<path d="M10.0637 2.49854H10.175C11.2025 2.50229 16.4088 2.53979 17.8125 2.91729C18.2369 3.0325 18.6236 3.25706 18.9339 3.56855C19.2443 3.88003 19.4675 4.26752 19.5812 4.69229C19.7075 5.16729 19.7962 5.79604 19.8563 6.44479L19.8688 6.57479L19.8962 6.89979L19.9062 7.02979C19.9875 8.17229 19.9975 9.24228 19.9987 9.47604V9.56979C19.9975 9.81229 19.9862 10.9548 19.8962 12.1448L19.8862 12.276L19.875 12.406C19.8125 13.121 19.72 13.831 19.5812 14.3535C19.4675 14.7783 19.2443 15.1658 18.9339 15.4773C18.6236 15.7888 18.2369 16.0133 17.8125 16.1285C16.3625 16.5185 10.8512 16.546 10.0875 16.5473H9.91C9.52375 16.5473 7.92625 16.5398 6.25125 16.4823L6.03875 16.4748L5.93 16.4698L5.71625 16.461L5.5025 16.4523C4.115 16.391 2.79375 16.2923 2.185 16.1273C1.76078 16.0122 1.37419 15.7878 1.06381 15.4766C0.753441 15.1653 0.530154 14.7781 0.41625 14.3535C0.2775 13.8323 0.185 13.121 0.1225 12.406L0.1125 12.2748L0.1025 12.1448C0.0404543 11.2978 0.00626915 10.449 0 9.59978L0 9.44604C0.0025 9.17729 0.0125 8.24853 0.08 7.22353L0.08875 7.09479L0.0925 7.02979L0.1025 6.89979L0.13 6.57479L0.1425 6.44479C0.2025 5.79604 0.29125 5.16604 0.4175 4.69229C0.531213 4.26752 0.754415 3.88003 1.0648 3.56855C1.37519 3.25706 1.76188 3.0325 2.18625 2.91729C2.795 2.75479 4.11625 2.65479 5.50375 2.59229L5.71625 2.58354L5.93125 2.57604L6.03875 2.57229L6.2525 2.56354C7.44214 2.52529 8.63226 2.50404 9.8225 2.49979L10.0637 2.49854ZM8 6.51103V12.5335L13.1962 9.52353L8 6.51103Z" fill="#0D7F80"/>
</svg>
